<svg width="160" height="130" fill="none" xmlns="http://www.w3.org/2000/svg"><path d="M84.025 125c28.066 0 50.818-22.61 50.818-50.5S112.091 24 84.025 24 33.207 46.61 33.207 74.5 55.96 125 84.025 125Z" fill="#FFCC4D"/><path d="M87.547 102c3.335 0 6.038-3.134 6.038-7s-2.703-7-6.038-7c-3.334 0-6.038 3.134-6.038 7s2.704 7 6.038 7ZM58.31 81c-.53 0-1.05-.142-1.507-.408a2.948 2.948 0 0 1-1.088-1.108 2.902 2.902 0 0 1 .088-2.978c2.718-4.26 10.984-11.545 22.823-8.684.75.2 1.39.68 1.784 1.34a2.9 2.9 0 0 1 .327 2.189 2.934 2.934 0 0 1-1.315 1.791 3 3 0 0 1-2.208.373c-10.697-2.585-16.33 6.028-16.387 6.116-.268.42-.64.766-1.08 1.005a3 3 0 0 1-1.436.364Zm35.536-10.97c-.612 0-1.21-.187-1.71-.535a2.925 2.925 0 0 1-1.087-1.41 2.897 2.897 0 0 1-.065-1.772 2.928 2.928 0 0 1 .98-1.484c9.427-7.634 20.07-4.58 24.382-1.894a2.931 2.931 0 0 1 1.315 1.83 2.898 2.898 0 0 1-.38 2.213 2.967 2.967 0 0 1-1.853 1.299 3 3 0 0 1-2.24-.376c-.409-.246-9.058-5.344-17.463 1.463a2.967 2.967 0 0 1-1.879.666Z" fill="#664500"/><path d="M73.168 111a2.299 2.299 0 0 1-1.827-.904 2.274 2.274 0 0 1-.378-1.995c1.335-4.68.788-9.205-1.497-12.418-1.517-2.133-3.68-3.437-5.934-3.58a2.28 2.28 0 0 1-2.144-2.416c.08-1.255 1.164-2.282 2.428-2.13 3.644.225 7.064 2.228 9.386 5.492 3.087 4.342 3.878 10.28 2.165 16.292a2.272 2.272 0 0 1-.82 1.196c-.397.3-.88.462-1.379.463Zm33.709-9.302c-.448 0-.886-.131-1.259-.377-3.564-2.34-5.558-6.434-5.473-11.23.089-4.968 2.471-9.581 6.06-11.757a2.28 2.28 0 0 1 1.732-.27 2.294 2.294 0 0 1 1.413 1.032 2.258 2.258 0 0 1-.107 2.53 2.285 2.285 0 0 1-.659.6c-2.245 1.362-3.8 4.556-3.861 7.945-.061 3.206 1.188 5.883 3.415 7.345a2.267 2.267 0 0 1 .932 2.558c-.141.469-.431.88-.826 1.173a2.305 2.305 0 0 1-1.367.451Z" fill="#E2A62D"/><path d="M84.307 24.834a.97.97 0 0 0-.567-.275s-47.765-9.156-49.832-7.314c-2.064 1.844 1.089 50.83 1.089 50.83.015.246.069.455.2.603 1.813 2.072 14.273-6.07 27.834-18.174 13.564-12.108 23.088-23.598 21.276-25.67Z" fill="#DD2E44"/><path d="M34.33 18.003a1.444 1.444 0 0 0-.116.37c.485 4.12 5.168 38.029 8.086 48.627 4.378-2.414 8.826-5.693 14.052-9.778-4.439-8.01-19.556-39.594-22.022-39.219Z" fill="#EA596E"/><path d="m124.165 104-32.399-3.747c-3.462-.294-9.551-.322-9.239-5.47.285-4.668 6.251-3.949 10.661-3.336l32.598 5.102-1.621 7.451Z" fill="#3B88C3"/><path d="m125.786 96.182-13.944-2.16c-1.631-.266-3.085 1.93-3.157 4.255-.083 2.584.75 3.891 2.398 4.195L124.769 104l1.017-7.818Z" fill="#88C9F9"/><path d="M138.643 95.817 130.782 103 116.73 87.815l7.861-7.183a10.146 10.146 0 0 1 7.245-2.623 10.137 10.137 0 0 1 6.999 3.216l.404.438a10.01 10.01 0 0 1 2.639 7.2 10.025 10.025 0 0 1-3.235 6.954Z" fill="#3B88C3"/><path d="M130.7 103.26c3.399-3.106 2.988-9.047-.918-13.27-3.907-4.222-9.83-5.127-13.23-2.02-3.4 3.106-2.989 9.047.918 13.269 3.907 4.223 9.83 5.128 13.23 2.021Z" fill="#88C9F9"/><path d="M127.87 100.201c1.7-1.553 1.178-4.865-1.166-7.399-2.344-2.533-5.622-3.327-7.322-1.774-1.7 1.553-1.178 4.866 1.166 7.399 2.344 2.533 5.622 3.328 7.322 1.774Z" fill="#269"/><path d="M40.755 122c2.5 0 4.528-2.015 4.528-4.5s-2.027-4.5-4.528-4.5c-2.501 0-4.529 2.015-4.529 4.5s2.028 4.5 4.529 4.5Zm80-93c3.334 0 6.038-2.686 6.038-6s-2.704-6-6.038-6c-3.335 0-6.038 2.686-6.038 6s2.703 6 6.038 6Zm27.17 101c3.334 0 6.037-2.686 6.037-6s-2.703-6-6.037-6c-3.335 0-6.038 2.686-6.038 6s2.703 6 6.038 6Z" fill="#55ACEE"/><path d="m47.52 104.729-6.987-16.64L34.214 106l13.306-1.271Zm63.172-71.84-11.955 2.963L101.726 24l8.966 8.889Zm-93.361 47.84-6.987-16.64L4.025 82l13.306-1.271Zm63.172-71.84-11.955 2.963L71.537 0l8.966 8.889Z" fill="#EA596E"/><path d="m0 44 12.075-14.289L3.021 24 0 44Zm147.925 20L160 49.711 150.946 44l-3.021 20Z" fill="#77B255"/></svg>