<svg width="40" height="40" fill="none" xmlns="http://www.w3.org/2000/svg"><path d="M40 20a2 2 0 0 0-4 0h4ZM20 4a2 2 0 0 0 0-4v4Zm15 32H5v4h30v-4ZM4 35V5H0v30h4Zm32-15v15h4V20h-4ZM5 4h15V0H5v4Zm0 32a1 1 0 0 1-1-1H0a5 5 0 0 0 5 5v-4Zm30 4a5 5 0 0 0 5-5h-4a1 1 0 0 1-1 1v4ZM4 5a1 1 0 0 1 1-1V0a5 5 0 0 0-5 5h4Z" fill="#fff"/><path d="m2 31 10.693-9.802a2 2 0 0 1 2.653-.044L28 32m-4-5 4.773-4.773a2 2 0 0 1 2.615-.186L38 27M26 8h12m-6-6v12" stroke="#fff" stroke-width="4" stroke-linecap="round" stroke-linejoin="round"/></svg>