<svg width="130" height="23" fill="none" xmlns="http://www.w3.org/2000/svg"><path d="m14.632 16.192.096.096c.048.016.096.04.144.072.064.016.136.032.216.048.08.016.184.024.312.024l-.096 1.248c-.192.016-.328.072-.408.168a.861.861 0 0 0-.192.312 3.088 3.088 0 0 0-.072.408.904.904 0 0 1-.072.36c-.096.032-.32.072-.672.12a75.582 75.582 0 0 1-3 .36 37.1 37.1 0 0 1-2.04.144h-.816l-.36-.072-1.68.144c-.592.032-1.12.064-1.584.096-.448.048-.84.08-1.176.096-.704.08-1.168.104-1.392.072l-1.512-.744-.072-1.272a.694.694 0 0 0 .36-.288c.112-.16.192-.336.24-.528l2.712-.168 1.08-.432 1.32-1.92a3.52 3.52 0 0 1 .384-.024c.128-.016.232-.04.312-.072.176-.032.344-.088.504-.168a.671.671 0 0 0 .312-.36c0-.144-.096-.312-.288-.504l-.288-.288c-.288.016-.656.016-1.104 0-.416-.032-.864-.064-1.344-.096a69.402 69.402 0 0 1-1.464-.168.843.843 0 0 1-.456-.12 3.089 3.089 0 0 1-.408-.312 1.163 1.163 0 0 1-.168-.144 6.226 6.226 0 0 0-.192-.24c-.16-.208-.336-.536-.528-.984-.112-.24-.2-.464-.264-.672-.048-.208-.048-.36 0-.456.32-.496.632-1.016.936-1.56.304-.56.592-1.096.864-1.608.512-1.056.92-1.872 1.224-2.448l1.224-.864 1.944.048.96.384c-.032.128-.08.28-.144.456-.048.176-.096.344-.144.504a4.977 4.977 0 0 1-.144.384c-.032.096-.032.136 0 .12.048 0 .12-.04.216-.12.112-.08.232-.168.36-.264a2.68 2.68 0 0 1 .36-.216.765.765 0 0 1 .408-.072c.48.208.936.36 1.368.456.432.08.896.096 1.392.048.32.416.616.992.888 1.728.144.336.248.672.312 1.008.08.336.112.624.096.864l-.768 1.344c-.08.176-.176.32-.288.432-.064.064-.12.112-.168.144l-.84 1.752-.48 1.8c-.192-.144-.424-.104-.696.12-.256.208-.344.48-.264.816l-.936 1.104c-.48.368-.496.656-.048.864.32-.016.536-.096.648-.24.272.08.624.096 1.056.048.448-.064.92-.152 1.416-.264.496-.096 1-.192 1.512-.288a10.26 10.26 0 0 1 1.392-.216ZM7.624 6.568l-.672.048c-.176.192-.376.416-.6.672a6.92 6.92 0 0 0-.648.816c-.208.288-.4.592-.576.912a3.22 3.22 0 0 0-.312.936L6.52 10.96c.144-.144.344-.288.6-.432.272-.16.552-.296.84-.408a7.61 7.61 0 0 1 .816-.312c.256-.08.448-.144.576-.192.128-.016.2-.112.216-.288a1.915 1.915 0 0 0-.072-.648 3.663 3.663 0 0 0-.264-.696c-.112-.224-.224-.384-.336-.48a.853.853 0 0 0-.24-.072 4.804 4.804 0 0 0-.264-.096 8.37 8.37 0 0 1-.264-.048 1.66 1.66 0 0 1-.192-.048l-.312-.672ZM22.32 22.816l-.12-1.992a1.233 1.233 0 0 1 .024-.408c.032-.16.08-.336.143-.528a.906.906 0 0 0 .049-.288v-.264c0-.096.008-.192.023-.288a.799.799 0 0 1 .145-.288c.32-.128.544-.248.672-.36.143-.112.232-.216.264-.312a.43.43 0 0 0 .072-.216c.016-.064.064-.112.143-.144l5.4-1.464a.931.931 0 0 0 .048-.12.453.453 0 0 0 .024-.144.395.395 0 0 0-.024-.12c0-.048-.023-.096-.072-.144l-.48-.216-2.663.264-1.657.6-.552-.024-.168-1.944 1.272-.6 4.56-.792 3.313.288.24 1.872-.313 2.184-6.455 1.656a.655.655 0 0 0-.313.168c-.064.096-.12.2-.168.312a2.519 2.519 0 0 0-.096.672l1.104-.048c.369-.016.736-.024 1.105-.024l1.032-.048c.352-.016.695-.048 1.032-.096.192-.016.375-.056.552-.12a9.56 9.56 0 0 0 .527-.192 2.46 2.46 0 0 0 .456-.168.978.978 0 0 1 .337-.072c.096 0 .28-.024.552-.072.271-.048.575-.112.911-.192l1.009-.24c.352-.096.656-.184.912-.264l.36 1.44v.624c0 .128-.28.304-.84.528-.273.112-.56.216-.864.312a67.93 67.93 0 0 1-.937.288c-.16.048-.328.072-.503.072-.16.016-.337.016-.528 0-.352-.016-.72-.016-1.104 0-.24.048-.488.072-.744.072l-.72.048c-.257.016-.513.024-.768.024-.256.016-.512.04-.768.072l-5.424.696ZM33.888 9.088l1.32-.216-.048 1.008c-.032.24-.04.424-.024.552.015.112.08.28.191.504l-.24.528c-.08-.112-.272-.168-.576-.168-.144 0-.28.024-.408.072a.39.39 0 0 0-.24.168c-.271.032-.591.064-.96.096-.367.032-.776.072-1.223.12-.433.032-.889.072-1.369.12-.463.032-.92.072-1.367.12-.896.08-1.672.152-2.328.216-.657.064-1.305.08-1.944.048l-2.04.696-1.56-.12-.432.168-.457-.168-.431-.672-.216-1.224c0-.048.031-.112.095-.192.08-.096.168-.192.264-.288.08-.096.16-.184.24-.264.096-.08.16-.136.192-.168l1.296-.096 1.8-.048c.033.08.145.12.337.12.08.016.167.04.263.072l.36.048c.225 0 .433-.144.625-.432l.816-.048 3.695-.024 4.369-.528ZM24.36 2.032l.72 2.688.168 1.176 1.247.288 3.456-.48.6-.024.385-.36 3.023-.504.408 1.056-1.32 2.04-3.887.168-4.849.936-1.68-.024-.695-2.088-.313-4.776 2.208-.576.529.48Zm23.438 7.752-.792-3.744-.96-1.848v-.864l.936-1.464h.984l.84 1.056.888-.048 2.256-.552 2.904-.936 2.448.6-.048 2.136-.888 2.568 1.224.36-.048 1.056-1.248 1.08-4.008.744-2.112.096-1.584.408-.792-.648Zm10.656 3.864a.97.97 0 0 0 .312-.192c.128-.112.16-.176.096-.192-.08-.016.064-.016.432 0 .384.032.728 0 1.032-.096a4.69 4.69 0 0 1 .216-.048c.08-.016.16-.04.24-.072 0-.256-.056-.424-.168-.504a.426.426 0 0 0-.192-.048 2.306 2.306 0 0 1-.168-.048l.12-5.328.216-.504-.216-.576.168-.768.072-.456.048-.984c0-.096.232-.16.696-.192.24 0 .512.008.816.024h1.056c.256.016.432.064.528.144a.954.954 0 0 1 .12.144l.12.12.696.864-.288 1.68-.48 5.592.432 6.072-1.128.192-1.656.192-1.2-.24.288-1.8a.545.545 0 0 0 .168-.288c.032-.112-.016-.216-.144-.312l-.072-.432-.72-.048-2.304.696-2.04.336a.842.842 0 0 0-.072-.528 1.128 1.128 0 0 0-.336-.432l.288-1.08 3.024-.888Zm-3.576-2.76c.288 0 .536-.008.744-.024l.648-.048c.208-.032.408-.056.6-.072.208-.032.432-.072.672-.12l1.8.408c0 .016-.008.08-.024.192 0 .096-.008.2-.024.312a.892.892 0 0 0-.024.216v.24a3.713 3.713 0 0 1-.648.216c-.288.08-.592.16-.912.24-.32.08-.624.168-.912.264-.272.096-.44.176-.504.24l-4.968.504-3.552.912-1.248-.456-.12-1.368a1.56 1.56 0 0 0 .648-.096c.24-.096.488-.208.744-.336.24-.128.472-.256.696-.384.24-.144.472-.256.696-.336l3.672-.336 2.016-.168Zm-5.76 7.272 1.368-2.376.504-1.008.912-.624 1.128-.216a1.2 1.2 0 0 0 .12.288c.064.08.12.16.168.24.112.192.168.336.168.432l-.48 2.592a2.525 2.525 0 0 1-.384.96c-.192.288-.504.448-.936.48l-1.992.192-.576-.96Zm4.848-13.944-2.424.408-1.488.936.216 2.328h.576l1.2-.36 1.224-.072.504-.504.192-2.736Zm38.152 9.576.312.36c0 .08-.008.192-.024.336 0 .128.016.256.048.384.016.144.048.272.096.384.048.096.12.152.216.168l.072 3.672-.264 1.8v.936h-.624l-1.968-.336-.6.48-4.464.456-1.608-.12a2.31 2.31 0 0 0-.744-.024c-.24.032-.48.12-.72.264l.216-2.04c.144.096.248.136.312.12.08 0 .136-.032.168-.096.048-.064.064-.152.048-.264a1.9 1.9 0 0 0-.024-.312l-.624-1.8.288-2.52-.12-.744.192-.288-.192-.672 1.128-.048c.416.176.704.224.864.144l.096-.048a.931.931 0 0 0 .12-.048.931.931 0 0 1 .12-.048.606.606 0 0 0 .144-.072l.408.408-.216 1.344.936.096 2.496-.168 1.368.192c.096-.24.144-.352.144-.336.016 0-.04-.088-.168-.264l-.336-.456.552-1.08h2.304l.048.24ZM80.166 4.096c.048.048.072.016.072-.096a.267.267 0 0 0 .024-.12c0-.064.008-.136.024-.216 0-.096.016-.208.048-.336a.466.466 0 0 1 .192-.288c.784-.464 1.528-.456 2.232.024l1.848 1.368c.144.16.256.44.336.84.096.4.152.856.168 1.368a12.68 12.68 0 0 1 0 1.56c-.032.528-.072 1-.12 1.416a9.21 9.21 0 0 1-.288.576 1.669 1.669 0 0 1-.552.6l-3.192 1.896a4.89 4.89 0 0 1-3.096-.144c-.384 0-.76-.12-1.128-.36a1.55 1.55 0 0 1-.696-.96 2.33 2.33 0 0 1-.336-.984 2.82 2.82 0 0 1 .12-.984l1.8-4.128a1.46 1.46 0 0 0 .168-.216c.064-.096.128-.2.192-.312.16-.176.384-.4.672-.672l1.512.168Zm9.6 7.8-.456-1.608.192-2.952-.144-.672-.216-1.656.24-2.232c.016-.384.12-.624.312-.72.096-.048.208-.064.336-.048h.504c.192.016.44.056.744.12.304.048.664.12 1.08.216l.6.768-.288 2.952-.144.456.192 1.896-.168.504-.144 1.128-.12 1.32-.288.744-2.232-.216Zm-9.96-4.272-.12.168a1.261 1.261 0 0 1-.12.192.997.997 0 0 0-.144.192 4.237 4.237 0 0 0-.264.456c-.064.16-.088.288-.072.384 0 .176.016.328.048.456 0 .112.104.216.312.312.16.08.376.112.648.096h.744c.08.016.176.024.288.024.128-.016.288-.048.48-.096.384-.096.616-.272.696-.528a.922.922 0 0 0 .048-.408c0-.144-.016-.264-.048-.36a.413.413 0 0 1-.096-.264.488.488 0 0 1 .048-.36c0-.384.04-.656.12-.816.08-.208.152-.344.216-.408.032-.048.048-.176.048-.384 0-.208-.04-.368-.12-.48a.73.73 0 0 0-.312-.216 1.688 1.688 0 0 0-.408-.096 1.739 1.739 0 0 0-.408 0c-.112 0-.192.024-.24.072l-1.344 2.064Zm9.768 11.808c.048-.096.08-.248.096-.456.016-.208.024-.368.024-.48 0-.064-.016-.176-.048-.336a.532.532 0 0 0-.024-.168v-.216l-2.808-.096-1.32.216-.288 1.8c.288-.048.584-.08.888-.096.304-.016.608-.024.912-.024l2.568-.144ZM112.877 4.24l1.104-.096 1.392.36c.144.144.176.424.096.84l.072.48.024 2.064.12 4.176-.48 1.032.288 1.896.144 3.192-.72.528-3.072.144.024-.888.192-.552.144-1.44.144-2.4c-.08-.704-.144-1.248-.192-1.632a9.76 9.76 0 0 0-.072-.72c-.016-.16.024-.408.12-.744V7.408l-.168-2.04.84-1.128Zm-11.376.84c.336 0 .736.008 1.2.024l1.44.048c.464.016.888.032 1.272.048s.656.016.816 0c.384 0 .656.04.816.12.144.064.32.264.528.6.208.32.368.648.48.984.096.32.12.576.072.768a1.33 1.33 0 0 1-.264.576l-1.536 2.088-.624.456-.336.6a1.05 1.05 0 0 1-.408.264 2.174 2.174 0 0 0-.384.12.77.77 0 0 0-.312.288c-.064.128-.08.328-.048.6.016.112.08.184.192.216s.24.064.384.096c.16.016.32.04.48.072.176.032.336.096.48.192l.504.048.648.576 2.328.96c.256.048.384.152.384.312a.64.64 0 0 1-.048.36l.024.216-.36.504-.864.336c-.08.144-.192.312-.336.504a5.606 5.606 0 0 1-.336.384l-1.032.216c-.144-.016-.328-.096-.552-.24-.224-.112-.384-.216-.48-.312a8.86 8.86 0 0 0-.168-.216 2.683 2.683 0 0 0-.168-.288l-.192-.24a6.632 6.632 0 0 1-.168-.264 1.049 1.049 0 0 0-.24-.216l-.24-.192-.288-.192a1.049 1.049 0 0 1-.216-.24 1.993 1.993 0 0 0-.336-.312 2.397 2.397 0 0 0-.24-.216.426.426 0 0 0-.432.048 1.13 1.13 0 0 0-.36.312 9.015 9.015 0 0 0-.216.336 8.86 8.86 0 0 1-.168.216c-.048.08-.128.184-.24.312-.112.112-.28.288-.504.528l-.672.144a2.87 2.87 0 0 1-.768.864c-.288.224-.576.272-.864.144a8.639 8.639 0 0 1-.936-.528c-.16-.096-.224-.256-.192-.48.032-.224.08-.408.144-.552.064-.128.16-.296.288-.504.144-.224.328-.496.552-.816.224-.32.456-.64.696-.96.256-.32.52-.648.792-.984.256-.336.504-.664.744-.984.256-.32.488-.608.696-.864.208-.272.384-.504.528-.696.16-.208.264-.36.312-.456.336-.112.616-.272.84-.48.224-.208.384-.416.48-.624.096-.208.12-.384.072-.528-.048-.16-.168-.248-.36-.264-.416 0-.8.04-1.152.12-.336.08-.632.176-.888.288-.176.096-.328.176-.456.24a3.11 3.11 0 0 1-.408.168 9.725 9.725 0 0 1-.504.096c-.176.032-.4.064-.672.096-.32.032-.624.064-.912.096-.288.016-.464.016-.528 0a1.511 1.511 0 0 0-.936-.984l.312-1.992 3.84-.96Zm20.686 7.488.528-3.312c.016-.048.056-.12.12-.216a1.259 1.259 0 0 1 .408-.456c.384-.256.576-.6.576-1.032.336-.288.592-.584.768-.888a3.477 3.477 0 0 0 .552-1.608c.032-.224.056-.4.072-.528l-.456-.936a2.26 2.26 0 0 0-.864-.456c-.288-.096-.424-.144-.408-.144-.128.016-.24.04-.336.072-.08.016-.152-.04-.216-.168s-.152-.176-.264-.144a1.305 1.305 0 0 1-.36.048c-.208 0-.408.016-.6.048a5.077 5.077 0 0 1-.336.024.624.624 0 0 0-.192.024 3.154 3.154 0 0 1-.24.048c-.08.016-.176.032-.288.048-.304.08-.56.136-.768.168l-.336-.12-.144-1.008.168-.408c.08-.048.176-.096.288-.144.128-.048.256-.104.384-.168.096-.016.216-.032.36-.048s.304-.024.48-.024c.4 0 .6-.184.6-.552.224 0 .512-.032.864-.096.368-.064.744-.12 1.128-.168.384-.048.76-.08 1.128-.096.384-.016.704.024.96.12.096.096.224.192.384.288.16.096.32.184.48.264.176.064.336.12.48.168.16.048.28.072.36.072l.648.432c-.032.272-.024.456.024.552.048.096.112.16.192.192.096.032.2.056.312.072.128 0 .24.032.336.096l.288 1.56-.432 2.928-2.616 2.304-.576.264-.624 1.44-.48.888-.432.72-1.536.36-.384-.48Zm1.584 2.52c.208.032.328.032.36 0 .144-.144.256-.176.336-.096.096.08.168.192.216.336.048.144.08.28.096.408.032.112.048.144.048.096l.192 1.008-.264.84-.216.072c-.176.08-.32.176-.432.288-.16.112-.32.2-.48.264a1.556 1.556 0 0 1-.24.096c-.016 0-.112-.04-.288-.12a12.56 12.56 0 0 0-.696-.312c-.64-.304-1-.512-1.08-.624.064-.192.112-.392.144-.6.048-.224.08-.448.096-.672.016-.112.024-.208.024-.288 0-.096.008-.176.024-.24 0-.08.008-.136.024-.168a8.55 8.55 0 0 1 .432-.168c.192-.064.4-.184.624-.36l1.08.24Z" fill="#fff"/></svg>